<svg width="1716" height="498" viewBox="0 0 1716 498" fill="none" xmlns="http://www.w3.org/2000/svg">
<path d="M1543 94.8103C1543.92 92.612 1545.06 87.5772 1547.82 83.8188C1553.14 76.5857 1561.15 75.9475 1568.39 80.9823C1576.19 86.4426 1579.02 97.9305 1574.63 106.156C1569.95 114.879 1561.37 117.786 1551.94 113.957C1544.35 110.908 1543.57 104.313 1543 94.7395V94.8103Z" fill="#72D0F6"/>
<path d="M1559.88 218.766C1560.02 217.774 1560.09 216.072 1560.59 214.441C1561.72 210.54 1563.49 207.066 1567.82 206.073C1572.64 204.938 1576.61 206.853 1579.66 210.47C1584.7 216.497 1582.29 227.063 1575.2 230.538C1567.25 234.367 1559.52 228.765 1559.88 218.766Z" fill="#72D0F6"/>
<path d="M1515.91 164.519C1515.7 157.853 1519.32 153.315 1524.92 153.244C1531.65 153.102 1536.97 158.633 1537.04 165.866C1537.04 172.249 1532.08 177.496 1525.84 177.425C1520.31 177.425 1516.12 171.965 1515.91 164.59V164.519Z" fill="#72D0F6"/>
<path d="M1644.76 136.863C1643.48 137.855 1641.64 140.55 1639.58 140.692C1632.14 141.401 1626.54 133.955 1628.38 126.439C1629.09 123.531 1633.27 121.616 1636.39 122.822C1641.78 124.949 1644.9 129.63 1644.76 136.792V136.863Z" fill="#72D0F6"/>
<path d="M1524.21 115.872C1522.72 116.865 1521.51 118.425 1520.24 118.496C1518.25 118.566 1515.13 118.283 1514.42 117.077C1511.73 112.468 1509.46 107.575 1507.76 102.54C1507.26 101.051 1508.54 98.0018 1509.96 97.1508C1511.37 96.2999 1514.07 96.9381 1515.84 97.7182C1517.05 98.2855 1518.46 100.271 1518.39 101.477C1518.04 105.731 1519.67 108.639 1522.79 111.262C1523.78 112.113 1523.78 114.099 1524.28 115.943L1524.21 115.872Z" fill="#72D0F6"/>
<path d="M1495.02 47.7702C1493.53 48.763 1492.32 50.3231 1491.04 50.3231C1489.06 50.394 1485.94 50.1104 1485.23 48.9048C1482.53 44.2955 1480.27 39.4025 1478.56 34.3677C1478.07 32.8785 1479.34 29.8292 1480.76 28.9782C1482.18 28.1273 1484.87 28.7655 1486.65 29.5456C1487.85 30.1129 1489.27 32.0984 1489.2 33.3039C1488.85 37.5587 1490.48 40.4662 1493.6 43.0899C1494.59 43.9409 1494.59 45.9265 1495.09 47.7702H1495.02Z" fill="#72D0F6"/>
<path d="M1551.79 32.3365C1549.95 29.2164 1547.89 27.1599 1547.82 25.1034C1547.82 21.9123 1550.59 20.7068 1553.57 21.1323C1556.62 21.5578 1558.96 23.6143 1557.96 26.5926C1557.33 28.5782 1554.56 29.8546 1551.72 32.3365H1551.79Z" fill="#72D0F6"/>
<path d="M1639.03 267.346C1637.19 264.226 1635.13 262.169 1635.06 260.113C1635.06 256.922 1637.83 255.716 1640.81 256.142C1643.86 256.567 1646.2 258.624 1645.2 261.531C1644.56 263.517 1641.8 264.793 1638.96 267.275L1639.03 267.346Z" fill="#72D0F6"/>
<path d="M1683.55 192.67C1680.15 194.513 1678.52 196.073 1676.88 196.144C1674.05 196.286 1671.71 192.953 1672.77 190.542C1673.34 189.337 1675.4 187.635 1676.18 187.919C1678.3 188.628 1680.08 190.33 1683.55 192.67Z" fill="#72D0F6"/>
<path d="M1640.24 236.783C1636.83 238.626 1635.2 240.186 1633.57 240.257C1630.74 240.399 1628.4 237.066 1629.46 234.655C1630.03 233.45 1632.08 231.748 1632.86 232.031C1634.99 232.74 1636.76 234.442 1640.24 236.783Z" fill="#72D0F6"/>
<path d="M1539.81 200.826C1539.31 197.21 1538.25 194.515 1539.03 193.735C1540.16 192.6 1542.72 192.458 1544.56 192.6C1545.13 192.6 1546.19 195.65 1545.7 196.43C1544.7 197.848 1542.79 198.699 1539.81 200.826Z" fill="#72D0F6"/>
<path d="M1489.48 13.0222C1487.99 9.90206 1486.72 8.34202 1486.65 6.64011C1486.65 5.71824 1488.99 3.80363 1489.7 4.01637C1491.33 4.58367 1493.53 6.07281 1493.67 7.42016C1493.81 8.69659 1491.68 10.2566 1489.48 13.0222Z" fill="#72D0F6"/>
<path d="M1495.49 185.012C1495.91 185.863 1496.27 186.713 1496.69 187.564C1495.77 187.848 1494.78 188.486 1493.93 188.273C1493.36 188.132 1493.15 186.855 1492.72 186.004C1493.65 185.65 1494.5 185.295 1495.42 184.941L1495.49 185.012Z" fill="#72D0F6"/>
<path d="M1450.77 43.0903C1451.19 43.9413 1451.55 44.7922 1451.97 45.6432C1451.05 45.9269 1450.06 46.5651 1449.21 46.3524C1448.64 46.2105 1448.43 44.9341 1448 44.1541C1448.92 43.7995 1449.77 43.4449 1450.69 43.0903H1450.77Z" fill="#72D0F6"/>
<path d="M1660.93 53.1855C1660.29 52.6182 1659.65 52.0509 1659.01 51.4836C1659.72 50.9872 1660.36 50.4199 1661.14 50.0653C1661.35 49.9944 1662.28 50.7744 1662.28 50.9163C1661.92 51.6963 1661.43 52.4054 1660.93 53.1145V53.1855Z" fill="#72D0F6"/>
<path d="M1603.28 186.714C1602.57 186.217 1601.79 185.65 1601.08 185.153C1601.72 184.515 1602.35 183.806 1603.13 183.31C1603.28 183.239 1604.27 183.948 1604.2 184.161C1604.06 185.012 1603.63 185.863 1603.28 186.714Z" fill="#72D0F6"/>
<path d="M1525.44 34.5102C1524.66 34.0138 1523.95 33.4465 1523.24 32.9501C1523.88 32.3119 1524.52 31.6027 1525.3 31.1063C1525.44 31.0354 1526.43 31.7446 1526.36 31.9573C1526.22 32.8083 1525.79 33.6592 1525.44 34.5102Z" fill="#72D0F6"/>
<path d="M1625.28 264.51C1624.85 264.226 1624.43 263.942 1624 263.659C1624.57 263.02 1625.06 262.311 1625.63 261.744C1625.7 261.673 1626.41 262.24 1626.84 262.524C1626.27 263.233 1625.77 263.871 1625.21 264.581L1625.28 264.51Z" fill="#72D0F6"/>
<path d="M1597.39 151.824C1597.32 152.25 1597.18 152.746 1597.11 153.172C1596.68 153.03 1595.97 153.101 1595.76 152.746C1595.55 152.463 1595.83 151.824 1595.9 151.399C1596.4 151.541 1596.89 151.683 1597.32 151.824H1597.39Z" fill="#72D0F6"/>
<path d="M111.001 90.8103C111.923 88.612 113.057 83.5772 115.823 79.8188C121.141 72.5857 129.154 71.9475 136.387 76.9823C144.188 82.4426 147.024 93.9305 142.628 102.156C137.948 110.879 129.367 113.786 119.936 109.957C112.348 106.908 111.568 100.313 111.001 90.7395V90.8103Z" fill="#72D0F6"/>
<path d="M127.878 214.766C128.02 213.774 128.091 212.072 128.587 210.441C129.722 206.54 131.494 203.066 135.82 202.073C140.642 200.938 144.613 202.853 147.662 206.47C152.697 212.497 150.286 223.063 143.195 226.538C135.253 230.367 127.523 224.765 127.878 214.766Z" fill="#72D0F6"/>
<path d="M83.9122 160.519C83.6995 153.853 87.316 149.315 92.9181 149.244C99.6548 149.102 104.973 154.633 105.044 161.866C105.044 168.249 100.08 173.496 93.84 173.425C88.3088 173.425 84.125 167.965 83.9122 160.59V160.519Z" fill="#72D0F6"/>
<path d="M212.761 132.863C211.484 133.855 209.641 136.55 207.584 136.692C200.138 137.401 194.536 129.955 196.38 122.439C197.089 119.531 201.273 117.616 204.393 118.822C209.782 120.949 212.903 125.63 212.761 132.792V132.863Z" fill="#72D0F6"/>
<path d="M92.2088 111.872C90.7196 112.865 89.5141 114.425 88.2377 114.496C86.2521 114.566 83.1319 114.283 82.4227 113.077C79.7281 108.468 77.4588 103.575 75.7569 98.5402C75.2605 97.051 76.5369 94.0018 77.9552 93.1508C79.3735 92.2999 82.0681 92.9381 83.8409 93.7182C85.0464 94.2855 86.4648 96.271 86.3939 97.4765C86.0393 101.731 87.6702 104.639 90.7904 107.262C91.7832 108.113 91.7831 110.099 92.2795 111.943L92.2088 111.872Z" fill="#72D0F6"/>
<path d="M63.0152 43.7702C61.526 44.763 60.3205 46.3231 59.0441 46.3231C57.0585 46.394 53.9385 46.1104 53.2294 44.9048C50.5347 40.2955 48.2655 35.4025 46.5636 30.3677C46.0672 28.8785 47.3436 25.8292 48.7618 24.9782C50.1801 24.1273 52.8747 24.7655 54.6475 25.5456C55.853 26.1129 57.2714 28.0984 57.2005 29.3039C56.8459 33.5587 58.4769 36.4662 61.5971 39.0899C62.5898 39.9409 62.5898 41.9265 63.0862 43.7702H63.0152Z" fill="#72D0F6"/>
<path d="M119.794 28.3365C117.95 25.2164 115.894 23.1599 115.823 21.1034C115.823 17.9123 118.588 16.7068 121.567 17.1323C124.616 17.5578 126.956 19.6143 125.963 22.5926C125.325 24.5782 122.559 25.8546 119.723 28.3365H119.794Z" fill="#72D0F6"/>
<path d="M207.033 263.346C205.189 260.226 203.133 258.169 203.062 256.113C203.062 252.922 205.828 251.716 208.806 252.142C211.855 252.567 214.195 254.624 213.202 257.531C212.564 259.517 209.799 260.793 206.962 263.275L207.033 263.346Z" fill="#72D0F6"/>
<path d="M251.55 188.67C248.147 190.513 246.516 192.073 244.885 192.144C242.048 192.286 239.708 188.953 240.771 186.542C241.339 185.337 243.395 183.635 244.175 183.919C246.303 184.628 248.076 186.33 251.55 188.67Z" fill="#72D0F6"/>
<path d="M208.239 232.783C204.835 234.626 203.204 236.186 201.573 236.257C198.736 236.399 196.396 233.066 197.46 230.655C198.027 229.45 200.084 227.748 200.864 228.031C202.991 228.74 204.764 230.442 208.239 232.783Z" fill="#72D0F6"/>
<path d="M107.81 196.826C107.313 193.21 106.25 190.515 107.03 189.735C108.164 188.6 110.717 188.458 112.561 188.6C113.128 188.6 114.192 191.65 113.696 192.43C112.703 193.848 110.788 194.699 107.81 196.826Z" fill="#72D0F6"/>
<path d="M57.4839 9.02222C55.9948 5.90206 54.7184 4.34202 54.6475 2.64011C54.6475 1.71824 56.9875 -0.19637 57.6967 0.0163689C59.3277 0.583672 61.5259 2.07281 61.6678 3.42016C61.8096 4.69659 59.6822 6.25662 57.4839 9.02222Z" fill="#72D0F6"/>
<path d="M63.4889 181.012C63.9144 181.863 64.269 182.713 64.6945 183.564C63.7726 183.848 62.7797 184.486 61.9288 184.273C61.3615 184.132 61.1489 182.855 60.7234 182.004C61.6453 181.65 62.4962 181.295 63.4181 180.941L63.4889 181.012Z" fill="#72D0F6"/>
<path d="M18.7655 39.0903C19.191 39.9413 19.5456 40.7922 19.9711 41.6432C19.0492 41.9269 18.0564 42.5651 17.2054 42.3524C16.6381 42.2105 16.4255 40.9341 16 40.1541C16.9219 39.7995 17.7726 39.4449 18.6945 39.0903H18.7655Z" fill="#72D0F6"/>
<path d="M228.929 49.1855C228.291 48.6182 227.652 48.0509 227.014 47.4836C227.723 46.9872 228.362 46.4199 229.142 46.0653C229.354 45.9944 230.276 46.7744 230.276 46.9163C229.922 47.6963 229.425 48.4054 228.929 49.1145V49.1855Z" fill="#72D0F6"/>
<path d="M171.277 182.714C170.568 182.217 169.787 181.65 169.078 181.153C169.717 180.515 170.355 179.806 171.135 179.31C171.277 179.239 172.269 179.948 172.199 180.161C172.057 181.012 171.631 181.863 171.277 182.714Z" fill="#72D0F6"/>
<path d="M93.4368 30.5102C92.6568 30.0138 91.9477 29.4465 91.2385 28.9501C91.8767 28.3119 92.515 27.6027 93.2951 27.1063C93.4369 27.0354 94.4296 27.7446 94.3587 27.9573C94.2169 28.8083 93.7914 29.6592 93.4368 30.5102Z" fill="#72D0F6"/>
<path d="M193.276 260.51C192.851 260.226 192.425 259.942 192 259.659C192.567 259.02 193.064 258.311 193.631 257.744C193.702 257.673 194.411 258.24 194.836 258.524C194.269 259.233 193.773 259.871 193.205 260.581L193.276 260.51Z" fill="#72D0F6"/>
<path d="M165.391 147.824C165.32 148.25 165.178 148.746 165.107 149.172C164.682 149.03 163.973 149.101 163.76 148.746C163.547 148.463 163.831 147.824 163.902 147.399C164.398 147.541 164.895 147.683 165.32 147.824H165.391Z" fill="#72D0F6"/>
<path d="M97.7939 381.142C96.5043 381.297 94.3514 381.779 92.1445 381.705C86.8847 381.593 81.9432 380.539 79.2511 375.461C76.2152 369.808 77.2793 364.198 80.7817 359.171C86.6349 350.851 100.662 350.326 107.386 358.033C114.839 366.685 110.422 378.233 97.7939 381.142Z" fill="#72D0F6"/>
<path d="M44.6647 454.331C36.3966 456.832 29.5064 453.828 27.5397 446.844C25.104 438.463 30.241 429.955 39.2664 427.441C47.2509 425.302 55.48 429.753 57.4832 437.584C59.3374 444.504 53.9087 451.569 44.7534 454.307L44.6647 454.331Z" fill="#72D0F6"/>
<path d="M132.036 265.828C128.75 269.18 126.867 272.442 124.318 273.22C120.325 274.29 117.89 271.234 117.424 267.366C116.934 263.408 118.722 259.791 122.693 260.059C125.391 260.191 127.915 263.223 131.971 265.94L132.036 265.828Z" fill="#72D0F6"/>
<path d="M23.687 235.166C27.1347 238.807 29.6331 240.324 30.2686 242.341C31.3969 245.842 28.0118 249.887 24.6388 249.365C22.9404 249.059 20.1219 247.057 20.2152 245.986C20.3893 243.086 21.9241 240.298 23.687 235.166Z" fill="#72D0F6"/>
<path d="M93.3946 274.565C96.8423 278.205 99.3407 279.723 99.9761 281.739C101.104 285.24 97.7193 289.286 94.3463 288.763C92.648 288.457 89.8294 286.455 89.9228 285.384C90.0968 282.485 91.6317 279.697 93.3946 274.565Z" fill="#72D0F6"/>
<path d="M82.0769 412.262C77.7188 414.095 74.704 416.329 73.4667 415.615C71.6668 414.576 70.6336 411.43 70.193 409.075C70.0028 408.366 73.4611 406.013 74.6034 406.372C76.7106 407.139 78.417 409.249 82.0769 412.262Z" fill="#72D0F6"/>
<path d="M77.1489 473.012C78.0709 472.195 79.0166 471.466 79.9386 470.648C80.6025 471.706 81.7337 472.735 81.7528 473.871C81.7656 474.628 80.24 475.322 79.318 476.139C78.5654 475.105 77.8366 474.159 77.084 473.125L77.1489 473.012Z" fill="#72D0F6"/>
<path d="M43.145 337.591C42.7617 338.645 42.3134 339.811 41.9301 340.865C40.9177 340.28 39.8166 339.72 38.9341 338.91C38.7978 338.756 39.3522 337.276 39.6421 337.294C40.7543 337.186 41.9615 337.433 43.145 337.591Z" fill="#72D0F6"/>
<path d="M133.099 283.989C132.887 284.617 132.674 285.244 132.462 285.871C131.474 285.375 130.42 284.992 129.52 284.473C129.408 284.408 129.88 283.33 130.092 282.703C131.169 283.175 132.134 283.582 133.211 284.054L133.099 283.989Z" fill="#72D0F6"/>
<path d="M1.46903 356.651C2.02511 356.597 2.69364 356.608 3.24972 356.554C3.21491 357.134 3.54138 357.997 3.16911 358.382C2.88555 358.743 1.99201 358.603 1.43594 358.657C1.44697 357.988 1.45795 357.319 1.49276 356.739L1.46903 356.651Z" fill="#72D0F6"/>
<path d="M1601.16 370.135C1602.37 369.651 1604.32 368.628 1606.47 368.129C1611.58 366.876 1616.63 366.614 1620.54 370.823C1624.94 375.497 1625.36 381.191 1623.28 386.954C1619.78 396.505 1606.37 400.643 1597.88 394.939C1588.44 388.51 1589.71 376.212 1601.16 370.135Z" fill="#72D0F6"/>
<path d="M1633.54 285.689C1640.87 281.134 1648.31 282.251 1652.02 288.489C1656.54 295.954 1653.78 305.501 1645.71 310.265C1638.55 314.398 1629.45 312.228 1625.49 305.183C1621.91 298.979 1625.32 290.75 1633.46 285.735L1633.54 285.689Z" fill="#72D0F6"/>
<path d="M1597.93 490.382C1600.24 486.294 1601.21 482.655 1603.47 481.244C1607.05 479.177 1610.19 481.499 1611.65 485.115C1613.14 488.811 1612.35 492.767 1608.45 493.537C1605.81 494.107 1602.58 491.831 1597.96 490.257L1597.93 490.382Z" fill="#72D0F6"/>
<path d="M1710.52 491.956C1706.25 489.332 1703.44 488.513 1702.31 486.73C1700.31 483.64 1702.54 478.856 1705.93 478.488C1707.65 478.344 1710.89 479.548 1711.08 480.607C1711.66 483.453 1710.9 486.543 1710.52 491.956Z" fill="#72D0F6"/>
<path d="M1632.99 471.942C1628.72 469.318 1625.91 468.499 1624.78 466.715C1622.78 463.625 1625.01 458.842 1628.4 458.474C1630.12 458.329 1633.36 459.534 1633.55 460.593C1634.13 463.438 1633.37 466.529 1632.99 471.942Z" fill="#72D0F6"/>
<path d="M1608.29 336.007C1612.02 333.108 1614.36 330.17 1615.74 330.54C1617.74 331.078 1619.56 333.85 1620.59 336.01C1620.96 336.646 1618.23 339.814 1617.03 339.762C1614.8 339.567 1612.6 337.97 1608.29 336.007Z" fill="#72D0F6"/>
<path d="M1597.32 276.051C1596.64 277.08 1595.92 278.029 1595.24 279.057C1594.33 278.207 1592.97 277.506 1592.65 276.414C1592.45 275.686 1593.74 274.621 1594.42 273.592C1595.41 274.397 1596.36 275.122 1597.36 275.926L1597.32 276.051Z" fill="#72D0F6"/>
<path d="M1665.22 398.057C1665.32 396.94 1665.45 395.698 1665.54 394.581C1666.67 394.884 1667.88 395.14 1668.94 395.694C1669.12 395.807 1668.96 397.38 1668.68 397.438C1667.63 397.83 1666.4 397.904 1665.22 398.057Z" fill="#72D0F6"/>
<path d="M1592.2 473.115C1592.25 472.454 1592.29 471.793 1592.33 471.132C1593.41 471.355 1594.53 471.452 1595.53 471.721C1595.66 471.755 1595.48 472.918 1595.44 473.579C1594.28 473.402 1593.24 473.258 1592.08 473.081L1592.2 473.115Z" fill="#72D0F6"/>
<path d="M1700.54 368.861C1700.02 369.057 1699.37 369.219 1698.85 369.415C1698.73 368.846 1698.19 368.096 1698.45 367.628C1698.63 367.206 1699.53 367.111 1700.05 366.915C1700.22 367.563 1700.38 368.212 1700.5 368.781L1700.54 368.861Z" fill="#72D0F6"/>
</svg>
